<svg id="svg" xmlns="http://www.w3.org/2000/svg" xmlns:xlink="http://www.w3.org/1999/xlink" width="400" height="400" viewBox="0, 0, 400,400"><g id="svgg"><path id="path0" d="M200.000 31.250 L 200.000 37.500 193.750 37.500 L 187.500 37.500 187.500 75.000 L 187.500 112.500 162.500 112.500 L 137.500 112.500 137.500 181.250 L 137.500 250.000 143.750 250.000 L 150.000 250.000 150.000 256.250 L 150.000 262.500 143.750 262.500 L 137.500 262.500 137.500 268.750 L 137.500 275.000 193.750 275.000 L 250.000 275.000 250.000 268.750 L 250.000 262.500 268.750 262.500 L 287.500 262.500 287.500 187.500 L 287.500 112.500 243.750 112.500 L 200.000 112.500 200.000 75.000 L 200.000 37.500 225.000 37.500 L 250.000 37.500 250.000 31.250 L 250.000 25.000 225.000 25.000 L 200.000 25.000 200.000 31.250 M12.500 106.250 L 12.500 112.500 6.250 112.500 L 0.000 112.500 0.000 118.750 L 0.000 125.000 6.250 125.000 L 12.500 125.000 12.500 118.750 L 12.500 112.500 18.750 112.500 L 25.000 112.500 25.000 125.000 L 25.000 137.500 37.500 137.500 L 50.000 137.500 50.000 131.250 L 50.000 125.000 68.750 125.000 L 87.500 125.000 87.500 131.250 L 87.500 137.500 93.750 137.500 L 100.000 137.500 100.000 131.250 L 100.000 125.000 93.750 125.000 L 87.500 125.000 87.500 118.750 L 87.500 112.500 68.750 112.500 L 50.000 112.500 50.000 118.750 L 50.000 125.000 43.750 125.000 L 37.500 125.000 37.500 118.750 L 37.500 112.500 31.250 112.500 L 25.000 112.500 25.000 106.250 L 25.000 100.000 18.750 100.000 L 12.500 100.000 12.500 106.250 M275.000 187.500 L 275.000 250.000 256.250 250.000 L 237.500 250.000 237.500 256.250 L 237.500 262.500 200.000 262.500 L 162.500 262.500 162.500 250.000 L 162.500 237.500 156.250 237.500 L 150.000 237.500 150.000 181.250 L 150.000 125.000 212.500 125.000 L 275.000 125.000 275.000 187.500 M25.000 156.250 L 25.000 162.500 31.250 162.500 L 37.500 162.500 37.500 156.250 L 37.500 150.000 31.250 150.000 L 25.000 150.000 25.000 156.250 M250.000 156.250 L 250.000 162.500 256.250 162.500 L 262.500 162.500 262.500 156.250 L 262.500 150.000 256.250 150.000 L 250.000 150.000 250.000 156.250 M87.500 168.750 L 87.500 175.000 93.750 175.000 L 100.000 175.000 100.000 168.750 L 100.000 162.500 93.750 162.500 L 87.500 162.500 87.500 168.750 M25.000 181.250 L 25.000 187.500 31.250 187.500 L 37.500 187.500 37.500 181.250 L 37.500 175.000 31.250 175.000 L 25.000 175.000 25.000 181.250 M175.000 181.250 L 175.000 187.500 181.250 187.500 L 187.500 187.500 187.500 181.250 L 187.500 175.000 181.250 175.000 L 175.000 175.000 175.000 181.250 M225.000 181.250 L 225.000 187.500 231.250 187.500 L 237.500 187.500 237.500 181.250 L 237.500 175.000 231.250 175.000 L 225.000 175.000 225.000 181.250 M250.000 193.750 L 250.000 200.000 256.250 200.000 L 262.500 200.000 262.500 193.750 L 262.500 187.500 256.250 187.500 L 250.000 187.500 250.000 193.750 M25.000 206.250 L 25.000 212.500 31.250 212.500 L 37.500 212.500 37.500 206.250 L 37.500 200.000 31.250 200.000 L 25.000 200.000 25.000 206.250 M87.500 206.250 L 87.500 212.500 93.750 212.500 L 100.000 212.500 100.000 206.250 L 100.000 200.000 93.750 200.000 L 87.500 200.000 87.500 206.250 M175.000 206.250 L 175.000 212.500 181.250 212.500 L 187.500 212.500 187.500 206.250 L 187.500 200.000 181.250 200.000 L 175.000 200.000 175.000 206.250 M212.500 218.750 L 212.500 225.000 218.750 225.000 L 225.000 225.000 225.000 218.750 L 225.000 212.500 218.750 212.500 L 212.500 212.500 212.500 218.750 M25.000 231.250 L 25.000 237.500 31.250 237.500 L 37.500 237.500 37.500 231.250 L 37.500 225.000 31.250 225.000 L 25.000 225.000 25.000 231.250 M87.500 243.750 L 87.500 250.000 93.750 250.000 L 100.000 250.000 100.000 243.750 L 100.000 237.500 93.750 237.500 L 87.500 237.500 87.500 243.750 M187.500 243.750 L 187.500 250.000 193.750 250.000 L 200.000 250.000 200.000 243.750 L 200.000 237.500 193.750 237.500 L 187.500 237.500 187.500 243.750 M225.000 243.750 L 225.000 250.000 231.250 250.000 L 237.500 250.000 237.500 243.750 L 237.500 237.500 231.250 237.500 L 225.000 237.500 225.000 243.750 M25.000 256.250 L 25.000 262.500 31.250 262.500 L 37.500 262.500 37.500 256.250 L 37.500 250.000 31.250 250.000 L 25.000 250.000 25.000 256.250 M25.000 281.250 L 25.000 287.500 31.250 287.500 L 37.500 287.500 37.500 281.250 L 37.500 275.000 31.250 275.000 L 25.000 275.000 25.000 281.250 " stroke="none" fill="#000000" fill-rule="evenodd"></path></g></svg>